STARTFONT 2.1
FONT -WRI-Mathematica1Mono-Medium-R-Normal--15-150-75-75-M-90-Adobe-FontSpecific
SIZE 15 75 75
FONTBOUNDINGBOX 20 16 -1 -3
STARTPROPERTIES 16
FOUNDRY "WRI"
FAMILY_NAME "Mathematica1Mono"
WEIGHT_NAME "Medium"
SLANT "R"
SETWIDTH_NAME "Normal"
PIXEL_SIZE 15
POINT_SIZE 150
RESOLUTION_X 75
RESOLUTION_Y 75
SPACING "M"
AVERAGE_WIDTH 90
CHARSET_REGISTRY "Adobe"
CHARSET_ENCODING "FontSpecific"
FONT_DESCENT 3
FONT_ASCENT 13
DEFAULT_CHAR 32
ENDPROPERTIES
CHARS 224
STARTCHAR space
ENCODING 32
SWIDTH 263 0
DWIDTH 4 0
BBX 0 0 0 0
BITMAP
ENDCHAR
STARTCHAR Exclamation
ENCODING 33
SWIDTH 600 0
DWIDTH 9 0
BBX 1 9 4 0
BITMAP
80
80
80
80
80
80
80
00
80
ENDCHAR
STARTCHAR ForAll
ENCODING 34
SWIDTH 600 0
DWIDTH 9 0
BBX 7 9 1 0
BITMAP
82
44
44
7c
28
28
28
10
10
ENDCHAR
STARTCHAR NumberSign
ENCODING 35
SWIDTH 600 0
DWIDTH 9 0
BBX 6 11 2 -1
BITMAP
28
28
28
28
fc
50
50
fc
50
50
50
ENDCHAR
STARTCHAR Exists
ENCODING 36
SWIDTH 600 0
DWIDTH 9 0
BBX 7 9 1 0
BITMAP
fe
02
02
02
1e
02
02
02
fe
ENDCHAR
STARTCHAR Percent
ENCODING 37
SWIDTH 600 0
DWIDTH 9 0
BBX 8 9 1 0
BITMAP
30
48
48
33
3c
cc
12
12
0c
ENDCHAR
STARTCHAR Ampersand
ENCODING 38
SWIDTH 600 0
DWIDTH 9 0
BBX 7 8 1 0
BITMAP
30
48
40
20
56
98
88
76
ENDCHAR
STARTCHAR SmallMember
ENCODING 39
SWIDTH 600 0
DWIDTH 9 0
BBX 7 7 1 0
BITMAP
7c
82
02
7e
02
04
f8
ENDCHAR
STARTCHAR LParen
ENCODING 40
SWIDTH 600 0
DWIDTH 9 0
BBX 3 12 4 -3
BITMAP
20
40
40
80
80
80
80
80
80
40
40
20
ENDCHAR
STARTCHAR RParen
ENCODING 41
SWIDTH 600 0
DWIDTH 9 0
BBX 3 12 2 -3
BITMAP
80
40
40
20
20
20
20
20
20
40
40
80
ENDCHAR
STARTCHAR Star
ENCODING 42
SWIDTH 600 0
DWIDTH 9 0
BBX 5 5 2 1
BITMAP
20
a8
70
50
50
ENDCHAR
STARTCHAR Plus
ENCODING 43
SWIDTH 600 0
DWIDTH 9 0
BBX 7 7 1 0
BITMAP
10
10
10
fe
10
10
10
ENDCHAR
STARTCHAR Comma
ENCODING 44
SWIDTH 600 0
DWIDTH 9 0
BBX 2 4 3 -2
BITMAP
40
40
80
80
ENDCHAR
STARTCHAR Minus
ENCODING 45
SWIDTH 600 0
DWIDTH 9 0
BBX 6 1 2 3
BITMAP
fc
ENDCHAR
STARTCHAR Period
ENCODING 46
SWIDTH 600 0
DWIDTH 9 0
BBX 2 2 3 0
BITMAP
c0
c0
ENDCHAR
STARTCHAR Slash
ENCODING 47
SWIDTH 600 0
DWIDTH 9 0
BBX 6 10 2 -1
BITMAP
04
08
08
10
10
20
20
40
40
80
ENDCHAR
STARTCHAR Zero
ENCODING 48
SWIDTH 600 0
DWIDTH 9 0
BBX 5 9 2 0
BITMAP
70
88
88
88
88
88
88
88
70
ENDCHAR
STARTCHAR One
ENCODING 49
SWIDTH 600 0
DWIDTH 9 0
BBX 7 9 1 0
BITMAP
10
70
90
10
10
10
10
10
fe
ENDCHAR
STARTCHAR Two
ENCODING 50
SWIDTH 600 0
DWIDTH 9 0
BBX 6 9 1 0
BITMAP
78
84
04
04
08
10
24
44
fc
ENDCHAR
STARTCHAR Three
ENCODING 51
SWIDTH 600 0
DWIDTH 9 0
BBX 6 9 1 0
BITMAP
78
84
04
08
30
08
04
84
78
ENDCHAR
STARTCHAR Four
ENCODING 52
SWIDTH 600 0
DWIDTH 9 0
BBX 6 9 1 0
BITMAP
08
18
28
48
88
fc
08
08
3c
ENDCHAR
STARTCHAR Five
ENCODING 53
SWIDTH 600 0
DWIDTH 9 0
BBX 5 9 2 0
BITMAP
f8
80
80
f0
88
08
08
88
70
ENDCHAR
STARTCHAR Six
ENCODING 54
SWIDTH 600 0
DWIDTH 9 0
BBX 5 9 2 0
BITMAP
38
40
80
80
f0
88
88
88
70
ENDCHAR
STARTCHAR Seven
ENCODING 55
SWIDTH 600 0
DWIDTH 9 0
BBX 6 9 1 0
BITMAP
fc
84
08
08
08
10
10
10
20
ENDCHAR
STARTCHAR Eight
ENCODING 56
SWIDTH 600 0
DWIDTH 9 0
BBX 5 9 2 0
BITMAP
70
88
88
88
70
88
88
88
70
ENDCHAR
STARTCHAR Nine
ENCODING 57
SWIDTH 600 0
DWIDTH 9 0
BBX 5 9 2 0
BITMAP
70
88
88
88
78
08
08
10
e0
ENDCHAR
STARTCHAR Colon
ENCODING 58
SWIDTH 600 0
DWIDTH 9 0
BBX 2 6 3 0
BITMAP
c0
c0
00
00
c0
c0
ENDCHAR
STARTCHAR SemiColon
ENCODING 59
SWIDTH 600 0
DWIDTH 9 0
BBX 2 8 3 -2
BITMAP
c0
c0
00
00
40
40
80
80
ENDCHAR
STARTCHAR Less
ENCODING 60
SWIDTH 600 0
DWIDTH 9 0
BBX 6 7 1 0
BITMAP
04
18
20
c0
20
18
04
ENDCHAR
STARTCHAR Equal
ENCODING 61
SWIDTH 600 0
DWIDTH 9 0
BBX 6 4 2 1
BITMAP
fc
00
00
fc
ENDCHAR
STARTCHAR Greater
ENCODING 62
SWIDTH 600 0
DWIDTH 9 0
BBX 6 7 2 0
BITMAP
80
60
10
0c
10
60
80
ENDCHAR
STARTCHAR Question
ENCODING 63
SWIDTH 600 0
DWIDTH 9 0
BBX 6 9 1 0
BITMAP
70
88
04
04
08
30
20
00
20
ENDCHAR
STARTCHAR TildeFullEqual
ENCODING 64
SWIDTH 600 0
DWIDTH 9 0
BBX 6 6 2 2
BITMAP
64
98
00
fc
00
fc
ENDCHAR
STARTCHAR CapAlpha
ENCODING 65
SWIDTH 600 0
DWIDTH 9 0
BBX 9 9 0 0
BITMAP
0800
0800
1400
1400
2200
3e00
2200
4100
e380
ENDCHAR
STARTCHAR CapBeta
ENCODING 66
SWIDTH 600 0
DWIDTH 9 0
BBX 7 9 1 0
BITMAP
f8
44
44
44
78
44
42
42
fc
ENDCHAR
STARTCHAR CapChi
ENCODING 67
SWIDTH 600 0
DWIDTH 9 0
BBX 8 9 0 0
BITMAP
e7
42
24
18
18
18
24
42
e7
ENDCHAR
STARTCHAR CapDelta
ENCODING 68
SWIDTH 600 0
DWIDTH 9 0
BBX 9 9 0 0
BITMAP
0800
1800
1400
1400
2200
2200
4100
4100
ff80
ENDCHAR
STARTCHAR CapEpsilon
ENCODING 69
SWIDTH 600 0
DWIDTH 9 0
BBX 7 9 1 0
BITMAP
fe
42
40
48
78
48
40
42
fe
ENDCHAR
STARTCHAR CapPhi
ENCODING 70
SWIDTH 600 0
DWIDTH 9 0
BBX 7 9 1 0
BITMAP
fe
10
7c
92
92
92
7c
10
fe
ENDCHAR
STARTCHAR CapGamma
ENCODING 71
SWIDTH 600 0
DWIDTH 9 0
BBX 7 9 1 0
BITMAP
fe
22
22
20
20
20
20
20
f8
ENDCHAR
STARTCHAR CapEta
ENCODING 72
SWIDTH 600 0
DWIDTH 9 0
BBX 7 9 1 0
BITMAP
ee
44
44
44
7c
44
44
44
ee
ENDCHAR
STARTCHAR CapIota
ENCODING 73
SWIDTH 600 0
DWIDTH 9 0
BBX 7 9 1 0
BITMAP
fe
10
10
10
10
10
10
10
fe
ENDCHAR
STARTCHAR CurlyTheta
ENCODING 74
SWIDTH 600 0
DWIDTH 9 0
BBX 8 9 1 0
BITMAP
0c
12
52
92
8a
87
84
cc
78
ENDCHAR
STARTCHAR CapKappa
ENCODING 75
SWIDTH 600 0
DWIDTH 9 0
BBX 8 9 1 0
BITMAP
e7
44
48
50
70
48
44
44
e3
ENDCHAR
STARTCHAR CapLambda
ENCODING 76
SWIDTH 600 0
DWIDTH 9 0
BBX 9 9 0 0
BITMAP
0800
0800
1400
1400
2200
2200
2200
4100
e380
ENDCHAR
STARTCHAR CapMu
ENCODING 77
SWIDTH 600 0
DWIDTH 9 0
BBX 9 9 0 0
BITMAP
e380
6300
7700
5500
5500
5d00
4900
4100
e380
ENDCHAR
STARTCHAR CapNu
ENCODING 78
SWIDTH 600 0
DWIDTH 9 0
BBX 8 9 1 0
BITMAP
cf
62
62
52
4a
4a
46
46
f2
ENDCHAR
STARTCHAR CapOmicron
ENCODING 79
SWIDTH 600 0
DWIDTH 9 0
BBX 7 9 1 0
BITMAP
38
44
82
82
82
82
82
44
38
ENDCHAR
STARTCHAR CapPi
ENCODING 80
SWIDTH 600 0
DWIDTH 9 0
BBX 7 9 1 0
BITMAP
fe
44
44
44
44
44
44
44
ee
ENDCHAR
STARTCHAR CapTheta
ENCODING 81
SWIDTH 600 0
DWIDTH 9 0
BBX 7 9 1 0
BITMAP
38
44
82
aa
ba
aa
82
44
38
ENDCHAR
STARTCHAR CapRho
ENCODING 82
SWIDTH 600 0
DWIDTH 9 0
BBX 6 9 2 0
BITMAP
f8
44
44
44
78
40
40
40
f0
ENDCHAR
STARTCHAR CapSigma
ENCODING 83
SWIDTH 600 0
DWIDTH 9 0
BBX 7 9 1 0
BITMAP
fc
44
20
10
10
20
42
82
fe
ENDCHAR
STARTCHAR CapTau
ENCODING 84
SWIDTH 600 0
DWIDTH 9 0
BBX 9 9 0 0
BITMAP
ff80
8880
0800
0800
0800
0800
0800
0800
3e00
ENDCHAR
STARTCHAR CapUpsilon
ENCODING 85
SWIDTH 600 0
DWIDTH 9 0
BBX 9 9 0 0
BITMAP
e180
3200
1400
0800
0800
0800
0800
0800
3e00
ENDCHAR
STARTCHAR FinalSigma
ENCODING 86
SWIDTH 600 0
DWIDTH 9 0
BBX 7 9 1 -2
BITMAP
3c
42
80
80
80
80
78
04
08
ENDCHAR
STARTCHAR CapOmega
ENCODING 87
SWIDTH 600 0
DWIDTH 9 0
BBX 7 9 1 0
BITMAP
38
44
82
82
82
c6
6c
28
ee
ENDCHAR
STARTCHAR CapXi
ENCODING 88
SWIDTH 600 0
DWIDTH 9 0
BBX 7 9 1 0
BITMAP
fe
82
82
28
38
28
82
82
fe
ENDCHAR
STARTCHAR CapPsi
ENCODING 89
SWIDTH 600 0
DWIDTH 9 0
BBX 7 9 1 0
BITMAP
fe
10
92
92
92
92
7c
10
fe
ENDCHAR
STARTCHAR CapZeta
ENCODING 90
SWIDTH 600 0
DWIDTH 9 0
BBX 7 9 1 0
BITMAP
fe
82
84
08
10
20
42
82
fe
ENDCHAR
STARTCHAR LBracket
ENCODING 91
SWIDTH 600 0
DWIDTH 9 0
BBX 2 12 4 -3
BITMAP
c0
80
80
80
80
80
80
80
80
80
80
c0
ENDCHAR
STARTCHAR Therefore
ENCODING 92
SWIDTH 600 0
DWIDTH 9 0
BBX 8 7 1 0
BITMAP
18
18
00
00
00
c3
c3
ENDCHAR
STARTCHAR RBracket
ENCODING 93
SWIDTH 600 0
DWIDTH 9 0
BBX 2 12 3 -3
BITMAP
c0
40
40
40
40
40
40
40
40
40
40
c0
ENDCHAR
STARTCHAR Perpendicular
ENCODING 94
SWIDTH 600 0
DWIDTH 9 0
BBX 9 7 0 0
BITMAP
0800
0800
0800
0800
0800
0800
ff80
ENDCHAR
STARTCHAR Underbar
ENCODING 95
SWIDTH 600 0
DWIDTH 9 0
BBX 7 1 1 -2
BITMAP
fe
ENDCHAR
STARTCHAR Hat
ENCODING 96
SWIDTH 600 0
DWIDTH 9 0
BBX 5 3 2 0
BITMAP
20
50
88
ENDCHAR
STARTCHAR Alpha
ENCODING 97
SWIDTH 600 0
DWIDTH 9 0
BBX 8 7 1 0
BITMAP
39
46
86
84
84
8a
73
ENDCHAR
STARTCHAR Beta
ENCODING 98
SWIDTH 600 0
DWIDTH 9 0
BBX 7 11 1 -2
BITMAP
1c
22
22
22
4c
42
42
42
5c
80
80
ENDCHAR
STARTCHAR Chi
ENCODING 99
SWIDTH 600 0
DWIDTH 9 0
BBX 9 9 0 -2
BITMAP
7080
0900
0a00
0c00
0800
1400
2400
4400
8300
ENDCHAR
STARTCHAR Delta
ENCODING 100
SWIDTH 600 0
DWIDTH 9 0
BBX 7 9 1 0
BITMAP
0e
10
08
34
42
82
82
84
78
ENDCHAR
STARTCHAR Epsilon
ENCODING 101
SWIDTH 600 0
DWIDTH 9 0
BBX 7 7 1 0
BITMAP
3e
40
80
fc
80
42
3c
ENDCHAR
STARTCHAR Phi
ENCODING 102
SWIDTH 600 0
DWIDTH 9 0
BBX 7 11 1 -2
BITMAP
08
08
3c
56
92
92
92
94
78
20
20
ENDCHAR
STARTCHAR Gamma
ENCODING 103
SWIDTH 600 0
DWIDTH 9 0
BBX 9 9 0 -2
BITMAP
c080
2100
1200
0c00
0c00
1400
1400
1400
1800
ENDCHAR
STARTCHAR Eta
ENCODING 104
SWIDTH 600 0
DWIDTH 9 0
BBX 8 10 0 -3
BITMAP
e7
39
21
21
62
42
42
02
04
04
ENDCHAR
STARTCHAR Iota
ENCODING 105
SWIDTH 600 0
DWIDTH 9 0
BBX 5 7 3 0
BITMAP
40
40
80
80
80
88
f0
ENDCHAR
STARTCHAR CurlyPhi
ENCODING 106
SWIDTH 600 0
DWIDTH 9 0
BBX 7 9 1 -2
BITMAP
24
4a
92
92
92
94
78
20
20
ENDCHAR
STARTCHAR Kappa
ENCODING 107
SWIDTH 600 0
DWIDTH 9 0
BBX 8 7 1 0
BITMAP
63
24
28
30
48
48
c6
ENDCHAR
STARTCHAR Lambda
ENCODING 108
SWIDTH 600 0
DWIDTH 9 0
BBX 8 9 0 0
BITMAP
30
08
04
04
04
0c
14
24
c3
ENDCHAR
STARTCHAR Mu
ENCODING 109
SWIDTH 600 0
DWIDTH 9 0
BBX 8 10 0 -3
BITMAP
21
21
21
42
42
46
7b
40
80
80
ENDCHAR
STARTCHAR Nu
ENCODING 110
SWIDTH 600 0
DWIDTH 9 0
BBX 8 7 1 0
BITMAP
81
62
22
14
18
18
10
ENDCHAR
STARTCHAR Omicron
ENCODING 111
SWIDTH 600 0
DWIDTH 9 0
BBX 7 7 1 0
BITMAP
3c
42
82
82
82
84
78
ENDCHAR
STARTCHAR Pi
ENCODING 112
SWIDTH 600 0
DWIDTH 9 0
BBX 9 7 0 0
BITMAP
7f80
1100
1200
2200
2200
4200
8100
ENDCHAR
STARTCHAR Theta
ENCODING 113
SWIDTH 600 0
DWIDTH 9 0
BBX 7 9 1 0
BITMAP
3c
42
42
82
fe
82
84
8c
78
ENDCHAR
STARTCHAR Rho
ENCODING 114
SWIDTH 600 0
DWIDTH 9 0
BBX 7 9 0 -2
BITMAP
1c
22
42
42
42
44
b8
80
80
ENDCHAR
STARTCHAR Sigma
ENCODING 115
SWIDTH 600 0
DWIDTH 9 0
BBX 8 7 1 0
BITMAP
3f
44
82
82
82
44
38
ENDCHAR
STARTCHAR Tau
ENCODING 116
SWIDTH 600 0
DWIDTH 9 0
BBX 6 7 2 0
BITMAP
fc
20
20
40
40
44
78
ENDCHAR
STARTCHAR Upsilon
ENCODING 117
SWIDTH 600 0
DWIDTH 9 0
BBX 8 7 1 0
BITMAP
83
42
42
84
84
84
78
ENDCHAR
STARTCHAR CurlyPi
ENCODING 118
SWIDTH 600 0
DWIDTH 9 0
BBX 9 7 1 0
BITMAP
ff80
4100
8900
8900
9100
9a00
6400
ENDCHAR
STARTCHAR Omega
ENCODING 119
SWIDTH 600 0
DWIDTH 9 0
BBX 8 7 1 0
BITMAP
22
41
89
89
91
9a
64
ENDCHAR
STARTCHAR Xi
ENCODING 120
SWIDTH 600 0
DWIDTH 9 0
BBX 7 11 1 -2
BITMAP
1c
22
20
18
60
80
80
80
70
08
70
ENDCHAR
STARTCHAR Psi
ENCODING 121
SWIDTH 600 0
DWIDTH 9 0
BBX 8 11 1 -2
BITMAP
08
08
91
52
52
92
94
a4
78
20
20
ENDCHAR
STARTCHAR Zeta
ENCODING 122
SWIDTH 600 0
DWIDTH 9 0
BBX 7 11 1 -2
BITMAP
0e
32
1c
20
40
40
40
40
38
84
78
ENDCHAR
STARTCHAR LBrace
ENCODING 123
SWIDTH 600 0
DWIDTH 9 0
BBX 4 12 3 -3
BITMAP
30
40
40
40
40
80
40
40
40
40
40
30
ENDCHAR
STARTCHAR VertBar
ENCODING 124
SWIDTH 600 0
DWIDTH 9 0
BBX 1 11 4 -2
BITMAP
80
80
80
80
80
80
80
80
80
80
80
ENDCHAR
STARTCHAR RBrace
ENCODING 125
SWIDTH 600 0
DWIDTH 9 0
BBX 4 12 2 -3
BITMAP
c0
20
20
20
20
10
20
20
20
20
20
c0
ENDCHAR
STARTCHAR Tilde
ENCODING 126
SWIDTH 600 0
DWIDTH 9 0
BBX 7 2 1 2
BITMAP
62
9c
ENDCHAR
STARTCHAR DEL
ENCODING 127
SWIDTH 263 0
DWIDTH 4 0
BBX 0 0 0 0
BITMAP
ENDCHAR
STARTCHAR FractionBarExt
ENCODING 128
SWIDTH 240 0
DWIDTH 4 0
BBX 4 1 0 3
BITMAP
f0
ENDCHAR
STARTCHAR EscapeChar
ENCODING 129
SWIDTH 291 0
DWIDTH 4 0
BBX 2 9 1 -2
BITMAP
c0
00
00
00
c0
00
00
00
c0
ENDCHAR
STARTCHAR SelectPlaceholder
ENCODING 130
SWIDTH 600 0
DWIDTH 9 0
BBX 7 7 1 0
BITMAP
fe
fe
fe
fe
fe
fe
fe
ENDCHAR
STARTCHAR Placeholder
ENCODING 131
SWIDTH 600 0
DWIDTH 9 0
BBX 7 7 1 0
BITMAP
fe
82
82
82
82
82
fe
ENDCHAR
STARTCHAR Continuation
ENCODING 132
SWIDTH 600 0
DWIDTH 9 0
BBX 3 7 3 0
BITMAP
80
00
00
40
00
00
20
ENDCHAR
STARTCHAR Skeleton
ENCODING 133
SWIDTH 600 0
DWIDTH 9 0
BBX 5 2 2 2
BITMAP
f8
f8
ENDCHAR
STARTCHAR LSkeleton
ENCODING 134
SWIDTH 1200 0
DWIDTH 18 0
BBX 14 7 3 0
BITMAP
0204
0c18
3060
c180
3060
0c18
0204
ENDCHAR
STARTCHAR RSkeleton
ENCODING 135
SWIDTH 1200 0
DWIDTH 18 0
BBX 14 7 1 0
BITMAP
8100
60c0
1830
060c
1830
60c0
8100
ENDCHAR
STARTCHAR Spacer
ENCODING 136
SWIDTH 600 0
DWIDTH 9 0
BBX 8 2 0 -2
BITMAP
81
ff
ENDCHAR
STARTCHAR Cross
ENCODING 137
SWIDTH 600 0
DWIDTH 9 0
BBX 5 5 2 1
BITMAP
88
50
20
50
88
ENDCHAR
STARTCHAR DblEqual
ENCODING 138
SWIDTH 798 0
DWIDTH 12 0
BBX 9 4 2 1
BITMAP
f780
0000
0000
f780
ENDCHAR
STARTCHAR Grave
ENCODING 139
SWIDTH 600 0
DWIDTH 9 0
BBX 2 2 4 1
BITMAP
80
40
ENDCHAR
STARTCHAR Acute
ENCODING 140
SWIDTH 600 0
DWIDTH 9 0
BBX 2 2 3 1
BITMAP
40
80
ENDCHAR
STARTCHAR DoubleAcute
ENCODING 141
SWIDTH 600 0
DWIDTH 9 0
BBX 5 2 2 1
BITMAP
48
90
ENDCHAR
STARTCHAR OverTilde
ENCODING 142
SWIDTH 600 0
DWIDTH 9 0
BBX 5 2 2 1
BITMAP
48
b0
ENDCHAR
STARTCHAR OverBar
ENCODING 143
SWIDTH 600 0
DWIDTH 9 0
BBX 5 1 2 1
BITMAP
f8
ENDCHAR
STARTCHAR DblUpDownArrow
ENCODING 144
SWIDTH 600 0
DWIDTH 9 0
BBX 7 11 1 0
BITMAP
10
28
6c
aa
28
28
28
aa
6c
28
10
ENDCHAR
STARTCHAR DblUpExtens1
ENCODING 145
SWIDTH 600 0
DWIDTH 9 0
BBX 3 3 3 0
BITMAP
a0
a0
a0
ENDCHAR
STARTCHAR DblLongLArrow
ENCODING 146
SWIDTH 1200 0
DWIDTH 18 0
BBX 16 7 1 0
BITMAP
1000
2000
7fff
8000
7fff
2000
1000
ENDCHAR
STARTCHAR DblExtens
ENCODING 147
SWIDTH 200 0
DWIDTH 3 0
BBX 3 3 0 2
BITMAP
e0
00
e0
ENDCHAR
STARTCHAR DblLongRArrow
ENCODING 148
SWIDTH 1200 0
DWIDTH 18 0
BBX 16 7 1 0
BITMAP
0008
0004
fffe
0001
fffe
0004
0008
ENDCHAR
STARTCHAR DblLRArrow2
ENCODING 149
SWIDTH 790 0
DWIDTH 12 0
BBX 10 7 1 0
BITMAP
1200
2100
7f80
8040
7f80
2100
1200
ENDCHAR
STARTCHAR DblLongLRArrow
ENCODING 150
SWIDTH 1200 0
DWIDTH 18 0
BBX 16 7 1 0
BITMAP
1008
2004
7ffe
8001
7ffe
2004
1008
ENDCHAR
STARTCHAR UpDownArrow
ENCODING 151
SWIDTH 600 0
DWIDTH 9 0
BBX 7 11 1 0
BITMAP
10
38
54
92
10
10
10
92
54
38
10
ENDCHAR
STARTCHAR LongLArrow
ENCODING 152
SWIDTH 1200 0
DWIDTH 18 0
BBX 16 7 1 0
BITMAP
1000
2000
4000
ffff
4000
2000
1000
ENDCHAR
STARTCHAR LongRArrow
ENCODING 153
SWIDTH 1200 0
DWIDTH 18 0
BBX 16 7 1 0
BITMAP
0008
0004
0002
ffff
0002
0004
0008
ENDCHAR
STARTCHAR LongLRArrow
ENCODING 154
SWIDTH 1200 0
DWIDTH 18 0
BBX 16 7 1 0
BITMAP
1008
2004
4002
ffff
4002
2004
1008
ENDCHAR
STARTCHAR ColonEqual
ENCODING 155
SWIDTH 696 0
DWIDTH 10 0
BBX 9 6 1 0
BITMAP
c000
df80
0000
0000
df80
c000
ENDCHAR
STARTCHAR Diamond2
ENCODING 156
SWIDTH 600 0
DWIDTH 9 0
BBX 7 7 1 1
BITMAP
10
28
44
82
44
28
10
ENDCHAR
STARTCHAR NotSquareSprsetEqual
ENCODING 157
SWIDTH 600 0
DWIDTH 9 0
BBX 6 8 2 -1
BITMAP
f0
08
04
04
08
f0
00
fc
ENDCHAR
STARTCHAR AtSign
ENCODING 158
SWIDTH 600 0
DWIDTH 9 0
BBX 9 9 0 0
BITMAP
1e00
6100
de80
a680
a480
a480
bf00
6000
3e00
ENDCHAR
STARTCHAR Solidmedsqr
ENCODING 159
SWIDTH 600 0
DWIDTH 9 0
BBX 6 6 2 1
BITMAP
fc
fc
fc
fc
fc
fc
ENDCHAR
STARTCHAR OverDot
ENCODING 160
SWIDTH 600 0
DWIDTH 9 0
BBX 2 2 4 0
BITMAP
c0
c0
ENDCHAR
STARTCHAR CurlyCapUpsilon
ENCODING 161
SWIDTH 600 0
DWIDTH 9 0
BBX 9 9 0 0
BITMAP
e380
1480
1400
0800
0800
0800
0800
0800
3e00
ENDCHAR
STARTCHAR Prime
ENCODING 162
SWIDTH 371 0
DWIDTH 6 0
BBX 4 5 1 1
BITMAP
30
20
40
40
80
ENDCHAR
STARTCHAR LessEqual
ENCODING 163
SWIDTH 600 0
DWIDTH 9 0
BBX 7 7 1 0
BITMAP
02
1c
e0
3c
02
00
fe
ENDCHAR
STARTCHAR Fraction
ENCODING 164
SWIDTH 600 0
DWIDTH 9 0
BBX 8 10 1 0
BITMAP
01
02
04
04
08
10
30
20
40
c0
ENDCHAR
STARTCHAR Infinity
ENCODING 165
SWIDTH 695 0
DWIDTH 10 0
BBX 9 5 0 1
BITMAP
7700
8880
8880
8880
7700
ENDCHAR
STARTCHAR RuleDelayed
ENCODING 166
SWIDTH 750 0
DWIDTH 11 0
BBX 10 7 1 0
BITMAP
c100
c080
0040
3fc0
0040
c080
c100
ENDCHAR
STARTCHAR ClubSuit
ENCODING 167
SWIDTH 600 0
DWIDTH 9 0
BBX 8 8 1 0
BITMAP
18
3c
3c
fe
ff
ff
f6
10
ENDCHAR
STARTCHAR DiamondSuit
ENCODING 168
SWIDTH 600 0
DWIDTH 9 0
BBX 7 9 1 0
BITMAP
10
28
28
44
82
44
28
28
10
ENDCHAR
STARTCHAR HeartSuit
ENCODING 169
SWIDTH 600 0
DWIDTH 9 0
BBX 7 9 1 0
BITMAP
6c
92
82
82
84
44
28
30
10
ENDCHAR
STARTCHAR SpadeSuit
ENCODING 170
SWIDTH 600 0
DWIDTH 9 0
BBX 7 9 1 0
BITMAP
10
10
38
7c
fe
fe
fe
fe
10
ENDCHAR
STARTCHAR LRArrow
ENCODING 171
SWIDTH 790 0
DWIDTH 12 0
BBX 10 7 1 0
BITMAP
1200
2100
4080
ffc0
4080
2100
1200
ENDCHAR
STARTCHAR LArrow
ENCODING 172
SWIDTH 720 0
DWIDTH 11 0
BBX 9 7 1 0
BITMAP
1000
2000
4000
ff80
4000
2000
1000
ENDCHAR
STARTCHAR UpArrow
ENCODING 173
SWIDTH 600 0
DWIDTH 9 0
BBX 7 10 1 0
BITMAP
10
38
54
92
10
10
10
10
10
10
ENDCHAR
STARTCHAR RArrow
ENCODING 174
SWIDTH 720 0
DWIDTH 11 0
BBX 9 7 1 0
BITMAP
0400
0200
0100
ff80
0100
0200
0400
ENDCHAR
STARTCHAR DownArrow
ENCODING 175
SWIDTH 600 0
DWIDTH 9 0
BBX 7 10 1 0
BITMAP
10
10
10
10
10
10
92
54
38
10
ENDCHAR
STARTCHAR Degree
ENCODING 176
SWIDTH 600 0
DWIDTH 9 0
BBX 5 5 2 5
BITMAP
70
88
88
88
70
ENDCHAR
STARTCHAR PlusMinus
ENCODING 177
SWIDTH 600 0
DWIDTH 9 0
BBX 7 9 1 0
BITMAP
10
10
10
fe
10
10
10
00
fe
ENDCHAR
STARTCHAR DoublePrime
ENCODING 178
SWIDTH 569 0
DWIDTH 9 0
BBX 7 5 1 1
BITMAP
36
24
48
48
90
ENDCHAR
STARTCHAR GreaterEqual
ENCODING 179
SWIDTH 600 0
DWIDTH 9 0
BBX 7 7 1 0
BITMAP
80
70
0e
78
80
00
fe
ENDCHAR
STARTCHAR Multiply
ENCODING 180
SWIDTH 600 0
DWIDTH 9 0
BBX 7 7 1 0
BITMAP
82
44
28
10
28
44
82
ENDCHAR
STARTCHAR Proportional
ENCODING 181
SWIDTH 600 0
DWIDTH 9 0
BBX 7 5 1 1
BITMAP
76
88
88
88
76
ENDCHAR
STARTCHAR PartialDiff
ENCODING 182
SWIDTH 600 0
DWIDTH 9 0
BBX 7 9 1 0
BITMAP
1c
02
3a
46
82
82
84
84
78
ENDCHAR
STARTCHAR Bullet
ENCODING 183
SWIDTH 600 0
DWIDTH 9 0
BBX 4 4 3 2
BITMAP
60
f0
f0
60
ENDCHAR
STARTCHAR Divide
ENCODING 184
SWIDTH 600 0
DWIDTH 9 0
BBX 5 7 2 0
BITMAP
20
00
00
f8
00
00
20
ENDCHAR
STARTCHAR NotEqual
ENCODING 185
SWIDTH 600 0
DWIDTH 9 0
BBX 6 9 2 -1
BITMAP
08
10
10
fc
10
20
fc
20
40
ENDCHAR
STARTCHAR Equivalence
ENCODING 186
SWIDTH 600 0
DWIDTH 9 0
BBX 6 5 2 1
BITMAP
fc
00
fc
00
fc
ENDCHAR
STARTCHAR Approxequal
ENCODING 187
SWIDTH 600 0
DWIDTH 9 0
BBX 7 5 1 1
BITMAP
62
9c
00
62
9c
ENDCHAR
STARTCHAR Ellipsis
ENCODING 188
SWIDTH 988 0
DWIDTH 15 0
BBX 12 2 2 0
BITMAP
c630
c630
ENDCHAR
STARTCHAR ArrowVertEx
ENCODING 189
SWIDTH 600 0
DWIDTH 9 0
BBX 1 5 4 -1
BITMAP
80
80
80
80
80
ENDCHAR
STARTCHAR ArrowHorizEx
ENCODING 190
SWIDTH 200 0
DWIDTH 3 0
BBX 5 1 -1 3
BITMAP
f8
ENDCHAR
STARTCHAR CarriageReturn
ENCODING 191
SWIDTH 628 0
DWIDTH 9 0
BBX 8 9 0 0
BITMAP
01
01
11
21
41
ff
40
20
10
ENDCHAR
STARTCHAR Aleph
ENCODING 192
SWIDTH 600 0
DWIDTH 9 0
BBX 7 9 1 0
BITMAP
82
42
22
e4
98
88
88
84
82
ENDCHAR
STARTCHAR IFraktur
ENCODING 193
SWIDTH 270 0
DWIDTH 4 0
BBX 4 9 0 0
BITMAP
e0
20
20
20
20
20
20
40
30
ENDCHAR
STARTCHAR RFraktur
ENCODING 194
SWIDTH 587 0
DWIDTH 9 0
BBX 9 9 0 0
BITMAP
7e00
8100
2100
2200
3e00
2200
2100
6100
1080
ENDCHAR
STARTCHAR Weierstrass
ENCODING 195
SWIDTH 600 0
DWIDTH 9 0
BBX 7 9 1 -2
BITMAP
1c
22
a2
c2
42
b4
a8
a0
40
ENDCHAR
STARTCHAR CircleMultiply
ENCODING 196
SWIDTH 600 0
DWIDTH 9 0
BBX 8 8 0 0
BITMAP
3c
42
a5
99
99
a5
42
3c
ENDCHAR
STARTCHAR CirclePlus
ENCODING 197
SWIDTH 600 0
DWIDTH 9 0
BBX 8 8 0 0
BITMAP
3c
4a
89
89
ff
89
4a
3c
ENDCHAR
STARTCHAR EmptySet
ENCODING 198
SWIDTH 600 0
DWIDTH 9 0
BBX 8 12 1 -2
BITMAP
02
3c
46
89
89
91
91
91
62
3c
20
40
ENDCHAR
STARTCHAR Union
ENCODING 199
SWIDTH 580 0
DWIDTH 9 0
BBX 7 11 1 0
BITMAP
82
82
82
82
82
82
82
82
82
44
38
ENDCHAR
STARTCHAR Intersection
ENCODING 200
SWIDTH 580 0
DWIDTH 9 0
BBX 7 11 1 0
BITMAP
38
44
82
82
82
82
82
82
82
82
82
ENDCHAR
STARTCHAR ProperSuperset
ENCODING 201
SWIDTH 600 0
DWIDTH 9 0
BBX 6 7 2 0
BITMAP
f0
08
04
04
04
08
f0
ENDCHAR
STARTCHAR nbspace
ENCODING 202
SWIDTH 263 0
DWIDTH 4 0
BBX 0 0 0 0
BITMAP
ENDCHAR
STARTCHAR NotSubset
ENCODING 203
SWIDTH 600 0
DWIDTH 9 0
BBX 6 9 1 -1
BITMAP
08
3c
50
90
90
90
50
3c
20
ENDCHAR
STARTCHAR ProperSubset
ENCODING 204
SWIDTH 600 0
DWIDTH 9 0
BBX 6 7 1 0
BITMAP
3c
40
80
80
80
40
3c
ENDCHAR
STARTCHAR ReflexSubset
ENCODING 205
SWIDTH 600 0
DWIDTH 9 0
BBX 6 8 1 -1
BITMAP
3c
40
80
80
40
3c
00
fc
ENDCHAR
STARTCHAR Element
ENCODING 206
SWIDTH 600 0
DWIDTH 9 0
BBX 6 7 1 0
BITMAP
3c
40
80
fc
80
40
3c
ENDCHAR
STARTCHAR NotElement
ENCODING 207
SWIDTH 600 0
DWIDTH 9 0
BBX 6 9 1 -1
BITMAP
08
3c
50
90
fc
90
50
3c
20
ENDCHAR
STARTCHAR Angle
ENCODING 208
SWIDTH 600 0
DWIDTH 9 0
BBX 7 7 1 0
BITMAP
10
20
20
40
40
40
fe
ENDCHAR
STARTCHAR Gradient
ENCODING 209
SWIDTH 600 0
DWIDTH 9 0
BBX 7 8 1 0
BITMAP
fe
44
44
28
28
28
10
10
ENDCHAR
STARTCHAR RegTM
ENCODING 210
SWIDTH 600 0
DWIDTH 9 0
BBX 9 9 0 0
BITMAP
3e00
4100
bc80
9480
9880
9480
b680
4100
3e00
ENDCHAR
STARTCHAR Copyright
ENCODING 211
SWIDTH 600 0
DWIDTH 9 0
BBX 9 9 0 0
BITMAP
3e00
4100
9c80
a480
a080
a080
9c80
4100
3e00
ENDCHAR
STARTCHAR TM
ENCODING 212
SWIDTH 600 0
DWIDTH 9 0
BBX 9 4 0 5
BITMAP
fd80
ad80
2680
7480
ENDCHAR
STARTCHAR Product
ENCODING 213
SWIDTH 631 0
DWIDTH 9 0
BBX 8 11 1 0
BITMAP
ff
42
42
42
42
42
42
42
42
42
e7
ENDCHAR
STARTCHAR Radical
ENCODING 214
SWIDTH 600 0
DWIDTH 9 0
BBX 9 15 0 -3
BITMAP
0080
0080
0100
0100
0100
0100
4200
e200
2200
1200
1400
0c00
0c00
0400
0400
ENDCHAR
STARTCHAR DotMath
ENCODING 215
SWIDTH 600 0
DWIDTH 9 0
BBX 2 2 3 2
BITMAP
c0
c0
ENDCHAR
STARTCHAR LogicalNot
ENCODING 216
SWIDTH 600 0
DWIDTH 9 0
BBX 6 3 2 2
BITMAP
fc
04
04
ENDCHAR
STARTCHAR Wedge
ENCODING 217
SWIDTH 600 0
DWIDTH 9 0
BBX 7 9 1 0
BITMAP
10
38
28
28
6c
44
44
c6
82
ENDCHAR
STARTCHAR Vee
ENCODING 218
SWIDTH 600 0
DWIDTH 9 0
BBX 7 9 1 0
BITMAP
82
c6
44
44
6c
28
28
38
10
ENDCHAR
STARTCHAR DblLRArrow
ENCODING 219
SWIDTH 790 0
DWIDTH 12 0
BBX 10 7 1 0
BITMAP
1200
2100
7f80
8040
7f80
2100
1200
ENDCHAR
STARTCHAR DblLArrow
ENCODING 220
SWIDTH 720 0
DWIDTH 11 0
BBX 9 7 1 0
BITMAP
1000
2000
7f80
8000
7f80
2000
1000
ENDCHAR
STARTCHAR DblUpArrow
ENCODING 221
SWIDTH 600 0
DWIDTH 9 0
BBX 7 10 1 0
BITMAP
10
28
6c
aa
28
28
28
28
28
28
ENDCHAR
STARTCHAR DblRArrow
ENCODING 222
SWIDTH 720 0
DWIDTH 11 0
BBX 9 7 1 0
BITMAP
0400
0200
ff00
0080
ff00
0200
0400
ENDCHAR
STARTCHAR DblDownArrow
ENCODING 223
SWIDTH 600 0
DWIDTH 9 0
BBX 7 10 1 0
BITMAP
28
28
28
28
28
28
aa
6c
28
10
ENDCHAR
STARTCHAR Lozenge
ENCODING 224
SWIDTH 600 0
DWIDTH 9 0
BBX 5 9 2 0
BITMAP
20
20
50
50
88
50
50
20
20
ENDCHAR
STARTCHAR LAngle
ENCODING 225
SWIDTH 600 0
DWIDTH 9 0
BBX 4 11 3 -2
BITMAP
10
20
20
40
40
80
40
40
20
20
10
ENDCHAR
STARTCHAR Diffd
ENCODING 226
SWIDTH 598 0
DWIDTH 9 0
BBX 9 9 0 0
BITMAP
1f00
0500
3500
4d00
8500
8500
8500
4d00
3780
ENDCHAR
STARTCHAR Expe
ENCODING 227
SWIDTH 600 0
DWIDTH 9 0
BBX 7 7 1 0
BITMAP
38
54
a2
be
a0
52
3c
ENDCHAR
STARTCHAR Imagi
ENCODING 228
SWIDTH 600 0
DWIDTH 9 0
BBX 7 10 1 0
BITMAP
10
10
00
f8
28
28
28
28
28
fe
ENDCHAR
STARTCHAR Sum
ENCODING 229
SWIDTH 602 0
DWIDTH 9 0
BBX 7 11 1 0
BITMAP
7e
42
20
10
08
08
10
20
42
82
fe
ENDCHAR
STARTCHAR LParenTop
ENCODING 230
SWIDTH 600 0
DWIDTH 9 0
BBX 3 13 4 -1
BITMAP
20
40
40
40
40
80
80
80
80
80
80
80
80
ENDCHAR
STARTCHAR LParenEx
ENCODING 231
SWIDTH 600 0
DWIDTH 9 0
BBX 1 6 4 -1
BITMAP
80
80
80
80
80
80
ENDCHAR
STARTCHAR LParenBot
ENCODING 232
SWIDTH 600 0
DWIDTH 9 0
BBX 3 13 4 0
BITMAP
80
80
80
80
80
80
80
80
40
40
40
40
20
ENDCHAR
STARTCHAR LBracketTop
ENCODING 233
SWIDTH 600 0
DWIDTH 9 0
BBX 3 3 4 -1
BITMAP
e0
80
80
ENDCHAR
STARTCHAR LBracketEx
ENCODING 234
SWIDTH 600 0
DWIDTH 9 0
BBX 1 6 4 -1
BITMAP
80
80
80
80
80
80
ENDCHAR
STARTCHAR LBracketBot
ENCODING 235
SWIDTH 600 0
DWIDTH 9 0
BBX 3 3 4 0
BITMAP
80
80
e0
ENDCHAR
STARTCHAR LBraceTop
ENCODING 236
SWIDTH 600 0
DWIDTH 9 0
BBX 4 10 4 -1
BITMAP
30
40
80
80
80
80
80
80
80
80
ENDCHAR
STARTCHAR LBraceMid
ENCODING 237
SWIDTH 600 0
DWIDTH 9 0
BBX 4 12 1 -3
BITMAP
10
10
10
10
10
20
c0
20
10
10
10
10
ENDCHAR
STARTCHAR LBraceBot
ENCODING 238
SWIDTH 600 0
DWIDTH 9 0
BBX 4 13 4 0
BITMAP
80
80
80
80
80
80
80
80
80
80
80
40
30
ENDCHAR
STARTCHAR BraceEx
ENCODING 239
SWIDTH 600 0
DWIDTH 9 0
BBX 1 6 4 -1
BITMAP
80
80
80
80
80
80
ENDCHAR
STARTCHAR Slot
ENCODING 240
SWIDTH 600 0
DWIDTH 9 0
BBX 9 9 0 0
BITMAP
2200
2200
ff80
2200
2200
2200
2200
ff80
2200
ENDCHAR
STARTCHAR RAngle
ENCODING 241
SWIDTH 600 0
DWIDTH 9 0
BBX 4 11 2 -2
BITMAP
80
c0
40
20
20
10
20
20
40
c0
80
ENDCHAR
STARTCHAR Intergral
ENCODING 242
SWIDTH 590 0
DWIDTH 9 0
BBX 9 15 0 -2
BITMAP
0700
0880
0800
0800
0800
0800
0800
0800
0800
0800
0800
0800
0800
8800
7000
ENDCHAR
STARTCHAR IntegralTop
ENCODING 243
SWIDTH 796 0
DWIDTH 12 0
BBX 10 15 0 -2
BITMAP
0040
0040
0040
0040
0040
0040
0040
0040
0040
0040
0080
0080
8100
4200
3c00
ENDCHAR
STARTCHAR IntegralEx
ENCODING 244
SWIDTH 796 0
DWIDTH 12 0
BBX 1 12 9 0
BITMAP
80
80
80
80
80
80
80
80
80
80
80
80
ENDCHAR
STARTCHAR IntegralBot
ENCODING 245
SWIDTH 796 0
DWIDTH 12 0
BBX 10 15 9 -2
BITMAP
0f00
3080
2040
4000
4000
8000
8000
8000
8000
8000
8000
8000
8000
8000
8000
ENDCHAR
STARTCHAR RParenTop
ENCODING 246
SWIDTH 600 0
DWIDTH 9 0
BBX 3 13 2 -1
BITMAP
80
80
40
40
40
20
20
20
20
20
20
20
20
ENDCHAR
STARTCHAR RParenEx
ENCODING 247
SWIDTH 600 0
DWIDTH 9 0
BBX 1 6 4 -1
BITMAP
80
80
80
80
80
80
ENDCHAR
STARTCHAR RParenBot
ENCODING 248
SWIDTH 600 0
DWIDTH 9 0
BBX 2 13 3 0
BITMAP
40
40
40
40
40
40
40
40
40
40
80
80
80
ENDCHAR
STARTCHAR RBracketTop
ENCODING 249
SWIDTH 600 0
DWIDTH 9 0
BBX 3 3 2 -1
BITMAP
e0
20
20
ENDCHAR
STARTCHAR RBracketEx
ENCODING 250
SWIDTH 600 0
DWIDTH 9 0
BBX 1 6 4 -1
BITMAP
80
80
80
80
80
80
ENDCHAR
STARTCHAR RBracketBot
ENCODING 251
SWIDTH 600 0
DWIDTH 9 0
BBX 3 3 2 0
BITMAP
20
20
e0
ENDCHAR
STARTCHAR RBraceTop
ENCODING 252
SWIDTH 600 0
DWIDTH 9 0
BBX 4 10 1 -1
BITMAP
c0
20
10
10
10
10
10
10
10
10
ENDCHAR
STARTCHAR RBraceMid
ENCODING 253
SWIDTH 600 0
DWIDTH 9 0
BBX 4 12 4 -3
BITMAP
80
80
80
80
80
40
30
40
80
80
80
80
ENDCHAR
STARTCHAR RBraceBot
ENCODING 254
SWIDTH 600 0
DWIDTH 9 0
BBX 4 13 1 0
BITMAP
10
10
10
10
10
10
10
10
10
10
10
20
c0
ENDCHAR
STARTCHAR Wolf
ENCODING 255
SWIDTH 835 0
DWIDTH 13 0
BBX 11 11 0 -2
BITMAP
0800
0900
0f00
0d00
1300
1100
2380
2040
4fe0
4400
8400
ENDCHAR
ENDFONT
